<svg xmlns="http://www.w3.org/2000/svg" viewBox="0 0 32.000001 32.000001">
  <g fill-rule="evenodd">
    <path d="M16.0153 13.261c1.528-.0062 2.7446-1.2322 2.7397-2.7639-.0065-1.5329-1.226-2.7507-2.754-2.7523-1.541-.0017-2.772 1.2403-2.761 2.7859.0115 1.5251 1.2424 2.7351 2.7753 2.7302zm0 0"/>
    <path d="M16.001 0C7.163 0 0 7.1645 0 16.001 0 24.8371 7.1629 32 16.001 32 24.8371 32 32 24.8371 32 16.001 32 7.1645 24.8371 0 16.001 0zm.0221 4.866c3.117.0077 5.6173 2.5575 5.6013 5.708-.0143 3.0786-2.5576 5.574-5.6684 5.5629-3.0801-.0098-5.6058-2.5641-5.5866-5.6476.016-3.1186 2.5433-5.6315 5.6537-5.6234zm6.3125 13.4847c-.689.708-1.5186 1.2195-2.441 1.5775-.8695.3372-1.8238.507-2.7682.6204.142.155.209.2316.2987.3212 1.282 1.2882 2.5702 2.5703 3.8474 3.8634.435.44.5262.9866.2864 1.4981-.2623.5594-.849.9285-1.4244.8884-.3646-.0253-.649-.2058-.9015-.4603-.967-.9731-1.9532-1.9307-2.9013-2.9218-.2767-.2893-.4092-.2333-.6523.016-.9731 1.0021-1.9626 1.99-2.957 2.97-.4477.4411-.9784.521-1.4977.2685-.55-.2668-.9015-.8279-.8745-1.3938.0192-.3822.2079-.6748.4698-.9367 1.2694-1.2661 2.5338-2.5371 3.8-3.806.0846-.0848.1628-.1744.2843-.3054-1.7264-.1792-3.2835-.6044-4.6163-1.6466-.1649-.1293-.336-.2558-.4861-.3994-.5836-.561-.6425-1.2023-.1805-1.864.3949-.566 1.0566-.7161 1.7453-.3916.1342.0622.2607.1424.3838.2255 2.4823 1.7072 5.8951 1.7534 8.3873.0765.2475-.1887.5115-.3437.8167-.4219.5963-.1535 1.1512.0655 1.4691.5868.3658.5946.3613 1.1749-.088 1.6352zm0 0"/>
  </g>
</svg>