<svg xmlns="http://www.w3.org/2000/svg" viewBox="-49 141 67 56">
  <g transform="translate(-42.361 117.544) scale(.12961)">
    <path d="M347.887 227.535c0-2.611 2.362-4.974 6.093-4.974h24.991c15.791 0 28.225 7.585 28.225 27.977v.745c0 20.391-12.807 28.225-29.219 28.225H364.05v28.846c0 3.358-4.103 5.098-8.082 5.098-4.103 0-8.082-1.741-8.082-5.098v-80.819h.001zm16.163 9.2v30.091h13.926c8.082 0 13.055-4.601 13.055-14.299v-1.492c0-9.698-4.973-14.299-13.055-14.299H364.05v-.001zM77.649 264.471c20.849-20.848 48.568-32.33 78.052-32.33 29.484 0 57.204 11.482 78.052 32.33a7.275 7.275 0 0 0 5.158 2.136 7.295 7.295 0 0 0 5.158-12.451c-23.604-23.604-54.986-36.603-88.367-36.603-33.381 0-64.763 12.999-88.367 36.603a7.293 7.293 0 1 0 10.314 10.315z"/>
    <path d="M208.82 296.698a7.295 7.295 0 0 0 5.158-12.451c-32.134-32.134-84.419-32.134-116.552 0a7.295 7.295 0 0 0 10.315 10.315c26.446-26.445 69.476-26.445 95.922 0a7.27 7.27 0 0 0 5.157 2.136zM127.04 313.861a7.293 7.293 0 0 0 0 10.315 7.294 7.294 0 0 0 10.315 0c10.117-10.116 26.577-10.116 36.694 0a7.267 7.267 0 0 0 5.157 2.136 7.293 7.293 0 0 0 5.157-12.451c-15.804-15.804-41.519-15.804-57.323 0zM309.922 455.918a119.679 119.679 0 0 1-9.254-5.655l-48.245-32.592c-14.642-9.892-31.722-15.12-49.392-15.12H114.48c-23.505 0-45.621 9.137-62.275 25.727a118.205 118.205 0 0 1-28.985 21.205 18.91 18.91 0 0 0-10.233 16.836c0 10.466 8.514 18.98 18.98 18.98h30.19a7.294 7.294 0 0 0 0-14.588h-30.19a4.398 4.398 0 0 1-4.393-4.393c0-1.641.907-3.131 2.368-3.889A132.773 132.773 0 0 0 62.5 438.612c13.9-13.848 32.36-21.474 51.979-21.474h19.825v53.573h-24.232a7.294 7.294 0 0 0 0 14.588H310.07c5.996 0 10.874-4.878 10.874-10.874 0-7.678-4.224-14.77-11.022-18.507zm-161.028 14.794v-53.573h54.138a73.38 73.38 0 0 1 41.226 12.62l48.245 32.592a133.917 133.917 0 0 0 10.391 6.349 6.793 6.793 0 0 1 2.265 2.012H148.894zM166.966 496.387h-22.53a7.294 7.294 0 0 0 0 14.588h22.53a7.294 7.294 0 0 0 0-14.588z"/>
    <path d="M456.709 490.265l-2.304-3.824c-8.683-14.409-23.126-24.555-39.625-27.837l-18.831-3.745v-95.447h48.732c10.034 0 18.196-8.163 18.196-18.196V199.165c0-10.034-8.163-18.196-18.196-18.196H302.63c-10.034 0-18.196 8.163-18.196 18.196v53.885a7.294 7.294 0 1 0 14.588 0v-53.885a3.613 3.613 0 0 1 3.609-3.609h142.052a3.613 3.613 0 0 1 3.609 3.609v142.052a3.613 3.613 0 0 1-3.609 3.609H302.63a3.613 3.613 0 0 1-3.609-3.609v-40.749a7.294 7.294 0 1 0-14.588 0v40.749c0 10.034 8.163 18.196 18.196 18.196h55.261v87.879l-9.68-1.925c-13.36-2.657-26.385-10.72-35.021-16.555l-48.244-32.591c-18.355-12.399-39.764-18.953-61.914-18.953h-88.55c-29.465 0-57.188 11.453-78.061 32.248a95.785 95.785 0 0 1-48.081 25.956l-10.472 2.193C-37.701 440.925-49 454.837-49 470.743v70.64a21.362 21.362 0 0 0 12.676 19.505L-7.272 573.8a48.11 48.11 0 0 0 13.281 25.058c9.433 9.433 21.824 14.15 34.216 14.15s24.782-4.717 34.216-14.15a48.074 48.074 0 0 0 12.336-21.087h242.236a48.076 48.076 0 0 0 12.337 21.087c9.14 9.139 21.29 14.173 34.216 14.173 12.925 0 25.077-5.033 34.217-14.173a48.074 48.074 0 0 0 12.336-21.087h13.837c14.913 0 27.046-12.133 27.046-27.046v-37.832a43.872 43.872 0 0 0-6.293-22.628zm-84.231-130.853h8.884v92.546l-8.884-1.767v-90.779zM64.125 588.544c-6.384 6.384-14.872 9.9-23.901 9.9s-17.517-3.516-23.901-9.9c-10.241-10.241-12.519-25.47-6.845-37.936l.136-.301c.173-.37.356-.736.543-1.1a33.55 33.55 0 0 1 1.173-2.095c.167-.275.336-.549.512-.82.159-.245.323-.487.489-.728.164-.239.327-.479.497-.714.195-.269.398-.533.602-.797.159-.206.314-.414.478-.617.24-.297.491-.587.741-.877.143-.165.28-.334.426-.497.372-.413.755-.818 1.149-1.215.034-.034.065-.07.099-.104.075-.075.154-.145.23-.219.334-.328.67-.652 1.013-.963.089-.081.183-.156.273-.236.342-.303.686-.604 1.038-.891l.101-.079c12.363-10.005 30.194-9.993 42.542.04l.044.034c.377.307.746.629 1.113.955.066.058.134.113.199.172.424.383.84.778 1.248 1.186.44.44.864.893 1.276 1.352.181.202.352.409.527.614.214.25.429.501.635.756.231.287.454.579.674.871a33.805 33.805 0 0 1 1.145 1.609l.127.193c8.58 13.105 7.12 30.903-4.383 42.407zm335.341 0c-6.385 6.384-14.873 9.9-23.902 9.9-9.029 0-17.516-3.516-23.9-9.9-11.505-11.504-12.965-29.305-4.384-42.409l.124-.188c.251-.378.512-.751.78-1.121.119-.164.241-.326.364-.487.221-.294.445-.587.678-.876.205-.253.417-.501.63-.749.177-.207.35-.417.533-.62.412-.459.836-.911 1.276-1.351 6.384-6.384 14.871-9.9 23.9-9.9 9.029 0 17.517 3.516 23.901 9.9.44.44.864.893 1.276 1.352.182.202.353.41.529.616.214.249.428.499.633.753.232.288.455.58.676.873a33.35 33.35 0 0 1 1.271 1.8c8.578 13.104 7.118 30.904-4.385 42.407zm48.947-37.819c0 6.87-5.589 12.459-12.459 12.459h-12.008c-.286-10.579-4.02-20.672-10.74-28.947-.045-.056-.088-.114-.134-.17a51.606 51.606 0 0 0-1.285-1.498c-.112-.126-.218-.256-.331-.382a49.463 49.463 0 0 0-1.432-1.506c-.083-.084-.159-.172-.243-.255-6.284-6.283-13.991-10.626-22.394-12.726a48.702 48.702 0 0 0-11.823-1.446c-3.231 0-6.414.315-9.514.929-9.299 1.844-17.847 6.389-24.702 13.243-.082.082-.157.168-.238.251-.49.497-.972.999-1.437 1.512-.11.121-.212.247-.32.369-.442.498-.878 1-1.297 1.512-.042.051-.081.104-.123.156-6.725 8.276-10.463 18.375-10.75 28.959H88.605c-.287-10.597-4.033-20.708-10.775-28.991l-.092-.117a49.607 49.607 0 0 0-1.362-1.587c-.086-.096-.166-.195-.253-.291a48.48 48.48 0 0 0-9.267-7.963c-8.046-5.306-17.339-7.959-26.632-7.959-12.391 0-24.783 4.717-34.216 14.15a48.793 48.793 0 0 0-1.57 1.652c-.151.166-.296.335-.445.502a51.117 51.117 0 0 0-1.515 1.793c-.357.445-.705.895-1.045 1.35-.106.142-.215.281-.318.424a48.2 48.2 0 0 0-2.546 3.864l-.065.112a47.8 47.8 0 0 0-1.101 1.978l-.031.058a48.084 48.084 0 0 0-5.037 15.502l-22.733-10.104a6.764 6.764 0 0 1-4.013-6.175v-70.64c0-9.041 6.423-16.948 15.272-18.802l10.472-2.193a110.343 110.343 0 0 0 55.386-29.899c18.12-18.053 42.186-27.995 67.765-27.995h88.55c19.229 0 37.814 5.69 53.748 16.453l48.244 32.591c9.681 6.541 24.396 15.603 40.341 18.775l66.57 13.238a45.417 45.417 0 0 1 29.976 21.058l2.304 3.824a29.25 29.25 0 0 1 4.198 15.1v37.832h-.002z"/>
    <path d="M40.224 542.499a22 22 0 0 0-15.658 6.486 22 22 0 0 0-6.486 15.658 22 22 0 0 0 6.486 15.658 22 22 0 0 0 15.659 6.486 21.996 21.996 0 0 0 15.658-6.486c8.634-8.634 8.634-22.682 0-31.316a22.001 22.001 0 0 0-15.659-6.486zm5.343 27.487a7.507 7.507 0 0 1-5.343 2.213 7.503 7.503 0 0 1-5.343-2.214 7.507 7.507 0 0 1-2.214-5.343c0-2.019.786-3.916 2.214-5.343a7.507 7.507 0 0 1 5.343-2.214c2.018 0 3.916.786 5.343 2.214 2.946 2.947 2.946 7.741 0 10.687zM375.564 542.499a22.001 22.001 0 0 0-15.659 6.486c-8.633 8.634-8.633 22.682 0 31.316a22 22 0 0 0 15.659 6.486 21.997 21.997 0 0 0 15.658-6.485 21.996 21.996 0 0 0 6.486-15.658 21.999 21.999 0 0 0-6.485-15.658 21.997 21.997 0 0 0-15.659-6.487zm5.343 27.488a7.506 7.506 0 0 1-5.343 2.213 7.507 7.507 0 0 1-5.343-2.213c-2.946-2.946-2.946-7.74 0-10.686a7.508 7.508 0 0 1 5.343-2.214c2.019 0 3.916.786 5.344 2.214a7.506 7.506 0 0 1 2.213 5.343 7.504 7.504 0 0 1-2.214 5.343z"/>
  </g>
</svg>