<svg xmlns="http://www.w3.org/2000/svg" viewBox="-49 141 67 56">
  <g transform="matrix(.83583 0 0 .83583 -2.688 -348.793)">
    <path d="M16.858 591.875c.63 0 1.141-.511 1.141-1.142v-3.592c0-.63-.51-1.142-1.141-1.142h-51.643c-.63 0-1.141.511-1.141 1.142v51.642c0 .63.51 1.142 1.141 1.142h51.643c.63 0 1.141-.511 1.141-1.142v-44.246a1.141 1.141 0 1 0-2.282 0v19.553h-4.533a1.141 1.141 0 1 0 0 2.282h4.533v21.27H-16.89v-5.522a1.141 1.141 0 0 0-2.282 0v5.522h-14.473v-49.36h14.473v35.622a1.141 1.141 0 0 0 2.282 0v-7.532H3.424a1.141 1.141 0 1 0 0-2.282h-20.313v-25.808h32.606v2.451c0 .63.51 1.142 1.14 1.142zM-43.125 586.537a1.141 1.141 0 0 0-1.937 0l-3.766 6.049a1.141 1.141 0 0 0 .969 1.744h2.624v4.772a1.141 1.141 0 0 0 2.283 0v-4.772h2.624a1.141 1.141 0 0 0 .969-1.745l-3.766-6.048zm-2.68 5.51l1.711-2.747 1.711 2.748h-3.422zM-40.328 631.594h-2.624v-29.449a1.141 1.141 0 0 0-2.283 0v29.45h-2.625a1.141 1.141 0 0 0-.968 1.743l3.765 6.049a1.141 1.141 0 0 0 1.938 0l3.766-6.049a1.141 1.141 0 0 0-.969-1.744zm-3.766 5.03l-1.71-2.747h3.421l-1.71 2.747zM17.461 647.123l-6.048-3.765a1.141 1.141 0 0 0-1.744.968v2.625h-37.265v-2.625a1.141 1.141 0 0 0-1.744-.968l-6.048 3.765a1.141 1.141 0 0 0 0 1.938l6.048 3.766a1.14 1.14 0 0 0 1.744-.97v-2.624H9.67v2.625a1.142 1.142 0 0 0 1.744.969l6.048-3.766a1.141 1.141 0 0 0 0-1.938zm-47.34 2.68l-2.747-1.71 2.748-1.712v3.422zm41.83 0v-3.422l2.748 1.711-2.748 1.711z"/>
  </g>
</svg>