<svg xmlns="http://www.w3.org/2000/svg" version="1.2" x="0px" y="0px" viewBox="0 0 67 56">
  <path d="M60 27.983c0-14.8882-12.1118-27-27-27-14.8883 0-27 12.1118-27 27 0 5.5283 1.674 10.6696 4.5349 14.9547l-.0045.0214.189.2733c.1631.2374.3341.4613.5062.6897.0653.0922.1362.189.2059.2812.216.2858.4354.5625.6592.8393a4.824 4.824 0 0 0 .1935.2328c1.0418 1.2477 2.1837 2.3907 3.4144 3.4144.0754.0664.1496.1283.2239.189.2688.2205.5411.4354.8178.6424.1103.0832.224.1665.3342.2497.2632.189.5265.3825.7998.5625.1407.1013.2892.1935.4343.2858.378.2464.756.4792 1.1385.7031.2677.1586.5411.3116.8134.4613.1665.0877.334.172.5006.2553.2947.1497.5895.2948.8831.4354.1541.0653.3038.1361.4534.2014a23.293 23.293 0 0 0 1.0451.4354c.1103.0438.2205.0877.3296.1316.963.3645 1.9564.6772 2.9712.9315.0393.0135.0832.018.1226.0315.4489.1091.9011.2059 1.3579.2936.1237.0225.2463.0439.3645.0664.018.0045.036.0045.0528.009v.0169l.4748.0663c.1057.018.216.0304.3251.044l.0968.0134c.018.0045.0393.0045.0573.009.0484.0034.0968.0079.1452.0169.1496.018.2947.0394.4432.0574.3566.0393.7166.0742 1.0778.1012.0742.0045.153.0135.2283.0169.0833.0045.171.0135.2588.018A26.2134 26.2134 0 0 0 33 54.983c.523 0 1.0372-.018 1.5513-.0484.0878-.0045.18-.0135.2678-.018.0754-.0034.1496-.0124.2284-.0169.3566-.0315.7166-.0619 1.0687-.1012.1485-.018.2936-.0394.4433-.0574.0573-.009.1147-.0135.1755-.0214.018-.0045.036-.0045.0528-.0045l.0923-.0135c.1012-.018.2025-.0259.3037-.0439l.5052-.0708-.0045-.0214c.009 0 .018 0 .027-.0045.1226-.0225.2407-.0394.3645-.0664.4567-.0832.909-.1845 1.3578-.2936.0394-.009.0833-.018.1227-.027a27.1792 27.1792 0 0 0 2.9756-.9315c.1091-.0439.2149-.0878.3251-.1316.351-.1407.7031-.2813 1.0451-.4354.1542-.0653.3038-.1361.4534-.2059a20.653 20.653 0 0 0 .8831-.4309c.1665-.0877.3387-.172.5007-.2598.2767-.1452.5456-.3027.8133-.4568.387-.2239.765-.4612 1.1385-.7031.1452-.0968.2937-.1845.4388-.2858.2689-.18.5321-.3735.7954-.567.1147-.0787.2238-.162.3386-.2452.2722-.2115.5445-.4219.8134-.6424.0742-.0607.1485-.1271.2238-.189a26.9684 26.9684 0 0 0 3.4144-3.4144c.0664-.0787.1316-.154.198-.2328.2239-.2768.4433-.5535.6548-.8393.0697-.0922.1406-.189.2058-.2812.1722-.233.3477-.4568.5063-.6897l.189-.2767-.0045-.018C58.326 38.6526 60 33.5113 60 27.983zm-1.8023 0c0 4.4742-1.1767 8.6794-3.2299 12.3267-1.4456-4.7993-5.6947-8.2744-10.7876-8.6794l-.0315-.0484h-6.3191a.3294.3294 0 0 1-.3296-.3296v-.5794c0-.163.136-.2733.2508-.3172 5.7915-2.1791 9.4084-11.214 8.648-17.5376-.395-3.2918-2.0262-6.236-4.3943-8.3633 9.4612 3.6293 16.1932 12.8059 16.1932 23.5283zm-4.9129 14.9322c-.0742.0967-.145.1935-.2193.2902-.2025.2644-.404.5277-.6154.783-.0214.026-.0439.0518-.0664.0788-.7245.8741-1.5109 1.6965-2.3501 2.4649-.0484.0483-.0968.0922-.1496.1406a22.6545 22.6545 0 0 1-.7605.6592 8.0904 8.0904 0 0 1-.2464.2025 31.5737 31.5737 0 0 1-.7594.5974c-.0889.0664-.1811.1271-.2689.1935-.1496.1103-.298.2149-.4477.3206v-4.465h-1.8023v5.6125c-.0348.0214-.0697.0394-.1057.0608a18.7841 18.7841 0 0 1-.6896.3825c-.162.0877-.3252.1676-.4838.2509-.2722.136-.549.2677-.8212.3948l-.4084.1857a28.6873 28.6873 0 0 1-1.0463.4297c-.0742.027-.145.0574-.2193.0844a25.1841 25.1841 0 0 1-2.7552.8561c-.0663.018-.1372.0315-.2025.0484a26.2171 26.2171 0 0 1-1.1733.2509c-.0923.018-.1845.0303-.2768.0483l-1.5694-10.4017h.7515v-2.2196l4.0253 2.6808 3.753-9.387c4.7554.5367 8.5736 4.2053 9.2239 9.009-.1047.1497-.206.2993-.3162.4478zm-26.1517 9.5715c-.0653-.0169-.1361-.0304-.2025-.0484a25.6062 25.6062 0 0 1-2.7551-.8527c-.0743-.026-.1452-.0563-.2194-.0878-.3521-.1361-.7031-.2767-1.0463-.4297-.136-.0574-.2722-.1238-.4083-.1857a27.513 27.513 0 0 1-.8213-.3948c-.1631-.0788-.3217-.1632-.4837-.2464-.233-.1226-.4613-.2543-.6897-.387-.036-.0214-.0708-.0394-.1057-.0608v-5.6126h-1.8023v4.4651c-.1496-.1057-.3026-.2103-.4477-.3206-.0878-.0664-.18-.1271-.2689-.1935-.2587-.1935-.5096-.3949-.7594-.5974-.0843-.0663-.1676-.1316-.2463-.2025a22.6532 22.6532 0 0 1-.7605-.6592c-.0529-.0484-.1013-.0923-.1542-.1406-.8347-.7684-1.621-1.5908-2.3456-2.465-.0225-.027-.045-.0528-.0663-.0787-.2115-.2553-.413-.5186-.6154-.783-.0743-.0967-.1496-.1935-.2194-.2902-.1102-.1485-.2115-.2981-.3161-.4478.6502-4.8037 4.4685-8.4723 9.2238-9.009l3.753 9.387 4.0253-2.6808v2.2196h.756l-1.5469 10.4107c-.1012-.0225-.2025-.036-.3037-.0573a24.9359 24.9359 0 0 1-1.1734-.251zm1.8112-23.7915c-4.3076-1.5908-7.642-8.9471-7.642-14.2121 0-.1148.0123-.2284.0123-.3432l.6592-.8122c1.4895-1.7674 4.0253-2.2725 6.3113-1.2578.9225.4095 1.9024.6109 2.9126.6109 2.6764 0 5.076-1.4501 6.3281-3.7609 2.861.9405 5.4192 2.7113 7.146 4.9478.2633 5.4889-2.962 13.0781-7.5543 14.805-.8607.3251-1.4198 1.1081-1.4198 2.0002v.5794c0 1.0328.7391 1.8945 1.7145 2.088l-1.5334 1.8405h-5.7577l-1.5334-1.8405c.9754-.1935 1.7145-1.0552 1.7145-2.088v-.5715c0-.8876-.5456-1.683-1.3579-1.9856zm4.0905-25.9099h.0315c.4388.0034.8742.0259 1.287.0743 4.4607.496 8.2137 3.6033 9.6773 7.7298-1.9035-1.6571-4.2368-2.9351-6.75-3.6258l-.774-.2104-.2981.7425c-.8314 2.0565-2.7957 3.3885-5.0108 3.3885-.7594 0-1.494-.1541-2.1836-.4613-2.4874-1.1036-5.2076-.8043-7.2158.6593.5535-1.8248 1.5514-3.4943 2.9352-4.878 2.2106-2.2061 5.1423-3.4189 8.3013-3.4189zm3.564 34.3429l3.1253-3.744h2.7461l-2.6944 6.7365-3.177-2.1184v-.8741zm-1.4715 15.9525c-.2418.0214-.4837.0439-.7256.0607-.4657.027-.927.0394-1.3972.0394h-.0923a29.6738 29.6738 0 0 1-1.305-.0394c-.2374-.0123-.4747-.0393-.7166-.0573-.1665-.0124-.3341-.026-.5006-.0473l1.5862-10.6526h2.0475l1.6088 10.6526a23.4493 23.4493 0 0 1-.5052.0439zm-.325-12.4988h-3.6046v-3.5988h3.6045v3.5988zm-5.4012-3.4537v.8741l-3.177 2.1184-2.6944-6.7365h2.7506l3.1208 3.744zM23.982 4.4593c-.171.1541-.351.3026-.5187.4703-2.557 2.548-3.9633 5.941-3.9633 9.5535 0 5.968 3.771 14.032 8.8155 15.8996.1102.0394.1845.162.1845.2981v.5715a.3294.3294 0 0 1-.3297.3296h-5.8398a.9581.9581 0 0 0-.251.035c-5.2075.3082-9.5759 3.8148-11.0474 8.6928-2.0531-3.6473-3.2298-7.8525-3.2298-12.3266 0-10.718 6.7274-19.89 16.1797-23.5238zm0 0"/>
</svg>