<svg xmlns="http://www.w3.org/2000/svg" viewBox="0 0 32.000001 32.000001">
  <path d="M16.001 0C7.164 0 0 7.163 0 16.001 0 24.837 7.164 32 16.001 32 24.837 32 32 24.837 32 16.001 32 7.163 24.837 0 16.001 0zm8.116 17.73c.746.73 1.534 1.415 2.204 2.217.295.357.575.725.79 1.138.303.589.028 1.236-.5 1.272l-3.278-.002c-.846.07-1.52-.27-2.088-.849-.453-.462-.874-.954-1.31-1.432a3.13 3.13 0 0 0-.59-.525c-.448-.29-.836-.201-1.092.266-.26.475-.32 1-.345 1.53-.035.772-.269.975-1.044 1.01-1.658.078-3.23-.173-4.692-1.009-1.288-.737-2.287-1.777-3.157-2.956-1.692-2.293-2.989-4.814-4.154-7.405-.262-.584-.07-.897.574-.908a89.29 89.29 0 0 1 3.21-.002c.435.007.722.256.89.667.579 1.423 1.287 2.776 2.175 4.031.237.334.478.668.822.904.38.26.67.173.849-.25.114-.269.163-.558.188-.846.085-.989.097-1.977-.052-2.963-.091-.616-.438-1.014-1.052-1.13-.313-.06-.267-.176-.115-.355.264-.309.512-.5 1.005-.5h3.705c.584.114.714.377.794.964l.003 4.115c-.007.228.113.902.522 1.052.328.107.544-.155.74-.362.888-.942 1.52-2.055 2.086-3.207.252-.507.467-1.033.677-1.559.155-.39.398-.582.837-.573l3.566.003c.106 0 .213.001.315.019.602.102.766.361.58.948-.292.92-.861 1.688-1.417 2.458-.595.823-1.231 1.618-1.82 2.446-.543.756-.5 1.137.174 1.793zm0 0" fill-rule="evenodd"/>
</svg>