<svg xmlns="http://www.w3.org/2000/svg" version="1.2" x="0px" y="0px" viewBox="0 0 67.000002 56">
  <path d="M58.6024 4.7175h-6.516V2.0198c0-.4973-.413-.9012-.9259-.9012h-6.516c-.5129 0-.9316.404-.9316.9012v2.6977h-20.468V2.0198c0-.4973-.4187-.9012-.9317-.9012h-6.516c-.5129 0-.9316.404-.9316.9012v2.6977H8.3554c-.5141 0-.9317.405-.9317.9011v48.599c0 .4972.4176.901.9317.901h50.247c.5129 0 .9316-.4038.9316-.901V5.6185c0-.496-.4187-.901-.9316-.901zM45.5762 2.921h4.6526v5.3955h-4.6526V2.9209zm-28.8473 0h4.6526v5.3955H16.729V2.9209zM9.2871 6.5198h5.5785v2.6977c0 .4973.4187.9011.9316.9011h6.516c.513 0 .9317-.4038.9317-.901V6.5197h20.468v2.6977c0 .4973.4187.9011.9316.9011h6.516c.513 0 .9259-.4038.9259-.901V6.5197h5.5843v8.0988H9.287V6.5198zm0 46.7966V16.4209h48.3836v36.8955H9.287zm0 0"/>
  <path d="M40.9236 21.8164H15.7972v26.1045h35.3633V21.8164H40.9236zm-6.516 1.8022h6.516v6.3023h-6.516v-6.3023zm6.516 14.4012h-6.516v-6.3023h6.516v6.3023zm-14.8895-6.3023h6.516v6.3023h-6.516v-6.3023zm0-8.0989h6.516v6.3023h-6.516v-6.3023zm-8.3735 0h6.5102v6.3023h-6.5102v-6.3023zm0 8.099h6.5102v6.3022h-6.5102v-6.3023zm6.5102 14.401h-6.5102v-6.3022h6.5102v6.3022zm8.3793 0h-6.516v-6.3022h6.516v6.3022zm8.3735 0h-6.516v-6.3022h6.516v6.3022zm8.3735 0h-6.516v-6.3022h6.516v6.3022zm0-8.0988h-6.516v-6.3023h6.516v6.3023zm0-14.4012v6.3023h-6.516v-6.3023h6.516zm0 0"/>
</svg>