<svg xmlns="http://www.w3.org/2000/svg" version="1.2" x="0px" y="0px" viewBox="0 0 67 56">
  <path fill="none" d="M37.5855 38.5368l-9.6426 9.6426h4.9864l9.6427-9.6426zM19.4296 38.5368h-4.021L9.7267 44.215l.5316 3.4943zM15.094 13.4647h36.6397v.9655H15.094zM12.6786 38.5368H8.8649l.1362.8763.3676 2.4384zM13.1631 19.2515h40.5015v1.931H13.1631zM14.1286 16.3611H52.699v.9655H14.1286z"/>
  <path d="M11.2382 17.3266h.9643v-2.8964h.9606v-2.8904h40.5015v2.8904h.9655v2.8964h.9642v3.8558h.9607V7.684H27.0859c-.5979 0-1.1583-.3207-1.4645-.8293l-2.3962-3.992H10.2727v18.3197h.9655v-3.8558zM57.8784 38.5368H53.015l-9.6426 9.6426h4.9852l9.4968-9.4968zM57.3698 41.8985l-6.2858 6.281h5.33zM6.529 23.1074l2.0442 13.5045h49.597l2.043-13.5045zM29.8726 38.5368L20.23 48.1794h4.9864l9.6426-9.6426zM40.6458 48.1794l9.6427-9.6426h-4.9913l-9.6426 9.6426zM10.621 50.1104l.4376 2.8904h44.6261l.4376-2.8904zM22.156 38.5368l-9.6426 9.6426H17.5l9.6426-9.6426z" fill="none"/>
  <path d="M61.0328 21.1824h-2.5469V7.4574c0-.9414-.7678-1.7044-1.7043-1.7044H27.2088l-2.3974-3.992c-.3013-.5135-.8618-.8293-1.4596-.8293H10.046c-.9365 0-1.7043.763-1.7043 1.7043v18.5464H5.7105c-.3531 0-.693.1555-.928.4231-.2303.2688-.3388.6268-.2821.9848L6.623 36.6119l2.049 13.4985.569 3.781c.094.6028.6026 1.0403 1.215 1.0403h45.8314c.6111 0 1.1198-.4375 1.2138-1.045l.5701-3.7763h.0048l2.043-13.4985 2.1238-14.0216a1.2485 1.2485 0 0 0-.282-.9848c-.2362-.2676-.575-.423-.9281-.423zm-50.76-18.3198h12.9524l2.3962 3.992c.3062.5087.8666.8294 1.4645.8294h29.469v13.4984h-.9606v-3.8558h-.9642v-2.8964h-.9655v-2.8904H13.1631v2.8904h-.9606v2.8964h-.9643v3.8558h-.9655V2.8626zM52.699 16.3611v.9655H14.1286v-.9655H52.699zm-37.605-1.931v-.9654h36.6396v.9655H15.094zm38.5705 4.8214v1.931H13.1631v-1.931h40.5015zm-44.2959 22.6l-.3676-2.4384-.1362-.8763h3.8137l-3.3099 3.3147zm.8896 5.8579l-.5316-3.4943 5.682-5.6783h4.021l-9.1714 9.1726zm22.671.47H27.943l9.6426-9.6426h4.9865l-9.6427 9.6426zm12.368-9.6426h4.9912l-9.6427 9.6426h-4.9912l9.6426-9.6426zm-20.0809 9.6426H20.23l9.6426-9.6426h4.9864l-9.6426 9.6426zm-7.7165 0h-4.9865l9.6427-9.6426h4.9864L17.5 48.1794zm38.1848 4.8214H11.0586l-.4375-2.8904h45.5012l-.4376 2.8904zm.7293-4.8214h-5.33l6.2858-6.281-.9558 6.281zm1.4403-9.4968l-9.4968 9.4968h-4.9852l9.6426-9.6426h4.8635l-.024.1458zm.3158-2.0707H8.5732L6.529 23.1074h53.6842l-2.043 13.5045z"/>
</svg>