<svg xmlns="http://www.w3.org/2000/svg" viewBox="0 0 32.000001 32.000001">
  <g fill-rule="evenodd">
    <path d="M20.7581 15.9499c0 2.5334-2.1197 4.5877-4.735 4.5877-2.6148 0-4.7362-2.0543-4.7362-4.5877 0-2.5355 2.1214-4.5893 4.7362-4.5893 2.6153 0 4.735 2.0538 4.735 4.5893zm0 0"/>
    <path d="M23.3521 16.2056c0 3.9227-3.2815 7.102-7.329 7.102-4.0487 0-7.3306-3.1793-7.3306-7.102a6.899 6.899 0 0 1 .3036-2.024h-2.166v9.962c0 .5147.4224.9366.9368.9366H24.188c.5148 0 .9367-.4219.9367-.9367v-9.9618h-2.0747a6.9392 6.9392 0 0 1 .302 2.024zm0 0M21.3879 11.4948h2.6644c.5852 0 1.0615-.478 1.0615-1.0615V7.8917c0-.5852-.4763-1.0615-1.0615-1.0615h-2.6644c-.5852 0-1.0615.4763-1.0615 1.0615v2.5416c0 .5835.4763 1.0615 1.0615 1.0615zm0 0"/>
    <path d="M16.001 0C7.163 0 0 7.1629 0 16.001 0 24.8371 7.1629 32 16.001 32 24.8371 32 32 24.8371 32 16.001 32 7.163 24.8371 0 16.001 0zm8.7629 27.7896H7.2365c-1.6659 0-3.0261-1.2309-3.0261-3.0257V7.2365c0-1.7936 1.3602-3.0261 3.0261-3.0261H24.764c1.6655 0 3.0257 1.2325 3.0257 3.0261V24.764c0 1.7948-1.3602 3.0257-3.0257 3.0257zm0 0"/>
  </g>
</svg>