<svg xmlns="http://www.w3.org/2000/svg" viewBox="-49 141 67 56">
  <g transform="matrix(.10938 0 0 .10938 -38.402 125.578)">
    <path d="M437.723 231.303h-63.74v-15.775h11.667a8.708 8.708 0 0 0 8.708-8.708 8.708 8.708 0 0 0-8.708-8.708h-11.667v-15.775h11.667a8.708 8.708 0 0 0 8.708-8.708 8.708 8.708 0 0 0-8.708-8.708h-11.667v-15.213a8.708 8.708 0 0 0-8.708-8.708 8.708 8.708 0 0 0-8.708 8.708v15.213h-11.669a8.708 8.708 0 0 0-8.708 8.708 8.708 8.708 0 0 0 8.708 8.708h11.669v15.775h-11.669a8.708 8.708 0 0 0-8.708 8.708 8.708 8.708 0 0 0 8.708 8.708h11.669v15.775h-67.383a8.708 8.708 0 0 0-8.708 8.708 8.708 8.708 0 0 0 8.708 8.708h139.831v282.212a8.708 8.708 0 0 0 8.708 8.708 8.708 8.708 0 0 0 8.708-8.708v-290.92a8.708 8.708 0 0 0-8.708-8.708z"/>
    <path d="M437.723 553.569a8.708 8.708 0 0 0-8.708 8.708v73.307h-162.47v-41.69h109.848a8.708 8.708 0 0 0 8.708-8.708V542.21a8.708 8.708 0 0 0-8.708-8.708H266.545v-24.746h57.467a8.708 8.708 0 0 0 8.708-8.708 8.708 8.708 0 0 0-8.708-8.708h-57.467v-25.562h101.14v25.562h-14.647a8.708 8.708 0 0 0-8.708 8.708 8.708 8.708 0 0 0 8.708 8.708h23.355a8.708 8.708 0 0 0 8.708-8.708V457.07a8.708 8.708 0 0 0-8.708-8.708H266.545v-67.736h101.14v25.561h-83.727a8.708 8.708 0 0 0-8.708 8.708 8.708 8.708 0 0 0 8.708 8.708h92.435a8.708 8.708 0 0 0 8.708-8.708v-42.976a8.708 8.708 0 0 0-8.708-8.708H266.545v-24.746h109.848a8.708 8.708 0 0 0 8.708-8.708v-42.978a8.708 8.708 0 0 0-8.708-8.708H266.545v-91.317a8.708 8.708 0 0 0-8.708-8.708h-281.56a8.708 8.708 0 0 0-8.708 8.708v457.534a8.708 8.708 0 0 0 8.708 8.708l461.445.002a8.708 8.708 0 0 0 8.708-8.708v-82.014a8.706 8.706 0 0 0-8.707-8.707zm-70.037-2.652v25.561h-101.14v-25.561h101.14zm0-255.43v25.562h-101.14v-25.562h101.14zM-15.015 195.463h264.144v440.118H-15.015V195.463z"/>
    <path d="M219.864 233.618H77.883a8.708 8.708 0 0 0-8.708 8.708 8.708 8.708 0 0 0 8.708 8.708h133.273v28.893H22.959v-28.893h25.898a8.708 8.708 0 0 0 8.708-8.708 8.708 8.708 0 0 0-8.708-8.708H14.251a8.708 8.708 0 0 0-8.708 8.708v46.309a8.708 8.708 0 0 0 8.708 8.708h205.613a8.708 8.708 0 0 0 8.708-8.708v-46.309a8.708 8.708 0 0 0-8.708-8.708zM219.864 417.116H14.251a8.708 8.708 0 0 0-8.708 8.708v46.309a8.708 8.708 0 0 0 8.708 8.708h205.613a8.708 8.708 0 0 0 8.708-8.708v-46.309a8.708 8.708 0 0 0-8.708-8.708zm-8.708 46.308H22.959v-28.893h188.197v28.893zM219.864 325.367H14.251a8.708 8.708 0 0 0-8.708 8.708v46.309a8.708 8.708 0 0 0 8.708 8.708h205.613a8.708 8.708 0 0 0 8.708-8.708v-46.309a8.708 8.708 0 0 0-8.708-8.708zm-8.708 46.309H22.959v-28.893h188.197v28.893zM219.864 508.865H14.251a8.708 8.708 0 0 0-8.708 8.708v46.309a8.708 8.708 0 0 0 8.708 8.708h205.613a8.708 8.708 0 0 0 8.708-8.708v-46.309a8.708 8.708 0 0 0-8.708-8.708zm-8.708 46.308H22.959V526.28h188.197v28.893z"/>
  </g>
</svg>