<?xml version="1.0" standalone="no"?>
<!DOCTYPE svg PUBLIC "-//W3C//DTD SVG 20010904//EN"
 "http://www.w3.org/TR/2001/REC-SVG-20010904/DTD/svg10.dtd">
<svg version="1.0" xmlns="http://www.w3.org/2000/svg"
 width="1000.000000pt" height="1000.000000pt" viewBox="0 0 1000.000000 1000.000000"
 preserveAspectRatio="xMidYMid meet">
<metadata>
Created by potrace 1.11, written by Peter Selinger 2001-2013
</metadata>
<g transform="translate(0.000000,1000.000000) scale(0.100000,-0.100000)"
fill="#000000" stroke="none">
<path d="M0 5000 l0 -5000 5000 0 5000 0 0 5000 0 5000 -5000 0 -5000 0 0
-5000z m806 2847 c36 -72 70 -136 74 -142 4 -5 45 -82 90 -170 45 -88 99 -191
120 -230 45 -85 124 -235 215 -410 37 -71 82 -157 100 -190 18 -33 65 -123
105 -200 76 -146 140 -268 220 -420 26 -49 73 -139 105 -200 98 -187 157 -301
317 -605 25 -47 82 -157 128 -245 45 -88 97 -185 114 -215 17 -30 31 -57 31
-60 1 -6 23 -49 65 -125 15 -27 54 -101 86 -163 205 -393 366 -701 434 -827
20 -38 61 -116 91 -172 29 -57 55 -103 58 -103 3 0 16 22 28 48 13 26 49 97
81 157 32 61 89 169 127 240 37 72 89 171 115 220 26 50 82 158 125 240 43 83
98 185 121 227 24 43 46 88 50 100 4 13 10 25 14 28 4 3 51 91 105 195 54 105
110 213 125 240 15 28 58 109 95 180 87 166 169 324 235 450 29 55 78 147 108
205 29 58 73 141 97 185 23 44 69 132 102 195 33 63 84 160 113 215 29 55 74
141 100 190 150 288 257 493 320 610 21 39 70 133 110 210 68 130 95 183 211
403 24 45 46 82 49 82 9 0 0 -5474 -9 -5479 -7 -5 -401 -7 -422 -2 -3 0 -5
838 -4 1861 0 1023 -2 1860 -5 1860 -3 0 -30 -48 -60 -107 -30 -59 -80 -155
-111 -213 -62 -118 -147 -280 -267 -510 -44 -85 -101 -193 -126 -240 -25 -47
-65 -123 -88 -170 -24 -47 -45 -87 -48 -90 -3 -3 -24 -43 -48 -90 -23 -47 -68
-134 -100 -195 -32 -60 -89 -168 -126 -240 -38 -71 -90 -170 -116 -220 -26
-49 -80 -153 -120 -230 -40 -77 -94 -180 -120 -230 -85 -162 -156 -298 -220
-420 -34 -66 -89 -169 -120 -230 -32 -60 -82 -157 -112 -215 -149 -287 -202
-386 -207 -392 -4 -4 -28 34 -54 85 -44 86 -96 187 -261 502 -38 72 -102 195
-144 275 -41 80 -87 168 -102 195 -15 28 -60 113 -100 190 -40 77 -94 181
-120 230 -26 50 -75 144 -110 210 -34 66 -84 161 -110 210 -26 50 -76 144
-110 210 -86 165 -173 331 -235 450 -77 146 -159 303 -233 445 -80 154 -254
486 -335 640 -33 63 -66 125 -73 138 -10 19 -12 -346 -13 -1795 0 -1000 -1
-1840 -1 -1868 l0 -50 -215 0 c-138 0 -215 3 -216 10 -6 44 -2 5472 3 5469 4
-3 37 -64 74 -137z m5904 -71 c30 -4 73 -9 95 -11 120 -14 305 -58 435 -104
264 -94 525 -254 735 -452 115 -108 171 -167 235 -248 19 -24 40 -48 46 -55
15 -17 128 -184 158 -236 22 -37 89 -174 126 -255 34 -74 98 -292 114 -385 2
-14 7 -41 10 -60 13 -77 16 -98 23 -180 18 -225 1 -509 -42 -690 -4 -14 -8
-38 -11 -53 -9 -47 -80 -260 -108 -321 -14 -31 -26 -61 -26 -66 0 -6 -4 -10
-9 -10 -5 0 -12 -11 -15 -25 -15 -61 -187 -321 -297 -450 -88 -102 -241 -248
-349 -330 -36 -28 -67 -53 -70 -56 -3 -3 -16 -12 -29 -19 -14 -7 -30 -17 -35
-22 -48 -40 -253 -150 -376 -202 -106 -44 -332 -106 -440 -121 -25 -3 -52 -8
-60 -10 -30 -8 -178 -18 -290 -19 l-114 -2 -2 -434 c0 -239 -2 -440 -3 -445 0
-7 -80 -10 -228 -10 l-228 0 0 2635 c-1 1449 0 2637 1 2640 3 8 687 4 754 -4z
m1482 -56 c348 -244 618 -556 819 -945 97 -188 186 -425 214 -570 2 -11 6 -31
10 -45 4 -14 8 -35 10 -47 2 -12 6 -34 9 -50 3 -15 8 -50 12 -78 3 -27 8 -59
10 -70 22 -109 22 -509 -1 -675 -14 -104 -34 -214 -55 -295 -6 -22 -13 -51
-16 -64 -34 -161 -190 -505 -312 -691 -72 -111 -197 -274 -266 -349 -134 -145
-337 -327 -431 -387 -16 -10 -32 -21 -35 -25 -16 -21 -224 -142 -335 -194
-127 -61 -280 -122 -325 -130 -3 0 -27 -8 -55 -17 -43 -14 -94 -27 -110 -29
-2 0 -19 -5 -37 -10 -18 -5 -49 -12 -68 -15 -19 -3 -42 -7 -50 -9 -17 -5 -80
-15 -116 -19 -13 -2 -27 -5 -30 -8 -3 -3 -6 -115 -7 -249 l-2 -244 -85 -1
c-47 0 -89 1 -95 3 -10 3 -11 462 -2 487 3 6 18 13 33 14 62 5 192 31 311 61
277 71 621 234 828 393 28 21 55 41 60 45 170 125 385 348 545 564 157 212
284 462 365 719 40 128 56 192 51 198 -3 3 -2 10 3 16 5 6 12 29 15 51 4 22 8
47 11 55 8 29 21 137 31 260 9 104 9 342 0 430 -4 36 -9 88 -11 115 -5 44 -19
131 -40 240 -3 17 -11 48 -17 70 -5 22 -12 47 -13 56 -6 31 -76 234 -102 299
-58 141 -145 304 -241 450 -45 68 -140 198 -167 226 -11 11 -32 36 -47 55 -34
43 -215 223 -248 246 -14 10 -32 25 -40 33 -8 9 -42 36 -75 61 -33 24 -62 46
-65 49 -3 3 -31 22 -62 43 -32 20 -58 39 -58 40 0 2 43 3 95 2 l95 -1 92 -64z
m-6384 -397 c28 -60 101 -211 162 -338 248 -510 288 -592 294 -613 4 -12 12
-22 17 -22 5 0 9 -5 9 -11 0 -11 19 -51 195 -414 54 -110 123 -254 155 -320
32 -66 106 -219 165 -340 59 -121 132 -272 162 -335 31 -63 105 -216 164 -339
60 -123 109 -226 109 -230 0 -5 -68 -145 -78 -161 -4 -6 -13 9 -70 115 -24 44
-58 107 -76 140 -19 33 -49 89 -68 125 -20 36 -78 144 -130 240 -53 96 -133
245 -178 330 -46 85 -112 206 -147 269 -34 62 -63 115 -63 116 0 2 -35 68 -78
147 -43 79 -100 184 -127 233 -26 50 -72 133 -100 185 -61 111 -87 159 -227
420 -58 107 -117 215 -130 240 -70 125 -358 661 -358 665 0 3 78 5 173 5 l173
0 52 -107z m-188 -2788 c52 -100 83 -157 199 -374 34 -63 61 -116 61 -119 0
-2 9 -16 20 -32 11 -15 18 -29 16 -31 -2 -2 -7 -33 -11 -69 -4 -36 -9 -72 -10
-81 -2 -9 -6 -40 -10 -70 -3 -30 -8 -65 -10 -79 -2 -14 -7 -47 -10 -75 -3 -27
-8 -66 -10 -85 -3 -19 -7 -55 -10 -80 -3 -25 -7 -56 -9 -70 -3 -14 -7 -50 -10
-80 -4 -30 -8 -64 -10 -75 -5 -26 -14 -96 -21 -170 -4 -33 -8 -67 -10 -75 -2
-8 -7 -42 -11 -75 -3 -33 -8 -69 -10 -80 -2 -11 -7 -47 -10 -80 -4 -33 -8 -67
-9 -75 -2 -8 -6 -45 -10 -82 -4 -37 -13 -69 -19 -71 -9 -3 -139 -2 -157 2 -4
0 -7 483 -7 1072 0 589 4 1067 8 1062 4 -4 31 -53 60 -108z m3144 -62 c-1
-138 -3 -151 -26 -193 -14 -25 -69 -130 -123 -235 -105 -204 -196 -380 -308
-595 -38 -74 -102 -198 -142 -275 -40 -77 -99 -192 -132 -255 -33 -63 -95
-182 -138 -265 -42 -82 -78 -151 -80 -153 -6 -6 -166 -8 -170 -2 -3 4 14 43
36 86 53 101 166 318 239 459 32 61 87 167 124 238 161 311 201 387 246 472
26 50 83 158 126 240 42 83 108 209 146 280 37 72 96 185 130 252 35 69 65
116 68 108 3 -8 4 -81 4 -162z"/>
<path d="M6429 7111 c0 -119 -1 -898 -2 -1731 l-2 -1515 95 1 c274 2 488 50
720 161 94 45 280 158 300 182 3 3 28 24 55 46 52 41 189 176 237 232 110 129
207 285 271 433 36 85 85 240 92 292 2 15 6 35 9 45 25 80 39 393 22 518 -8
59 -15 110 -20 145 -8 53 -48 194 -78 277 -54 149 -179 367 -264 460 -19 20
-34 40 -34 43 0 11 -204 209 -267 258 -35 28 -86 65 -115 83 -29 18 -55 36
-58 40 -6 8 -224 119 -235 119 -4 0 -21 6 -38 14 -53 24 -211 69 -287 81 -25
4 -54 9 -65 11 -46 9 -147 16 -237 18 l-98 2 -1 -215z m535 -297 c128 -52 279
-123 288 -137 4 -6 5 -14 3 -17 -2 -4 -9 -70 -20 -195 -3 -31 -11 -115 -21
-220 -8 -86 -13 -133 -18 -190 -2 -27 -7 -72 -10 -100 -3 -27 -8 -79 -11 -115
-3 -36 -8 -85 -11 -110 -2 -25 -6 -70 -9 -101 -2 -31 -7 -80 -10 -110 -11
-105 -14 -142 -20 -213 -3 -39 -8 -82 -10 -96 -2 -14 -7 -56 -10 -95 -3 -38
-8 -88 -10 -110 -2 -22 -7 -71 -11 -110 -3 -38 -7 -83 -9 -100 -2 -16 -6 -59
-10 -95 -3 -36 -8 -87 -11 -115 -2 -27 -7 -75 -10 -105 -2 -30 -6 -64 -7 -75
-1 -15 -23 -27 -91 -52 -50 -17 -92 -30 -96 -28 -3 2 -4 286 -3 632 1 345 2
913 2 1261 1 461 4 632 12 632 6 0 53 -16 103 -36z"/>
</g>
</svg>
